<svg xmlns="http://www.w3.org/2000/svg" width="16" height="17" fill="none" viewBox="0 0 16 17"><path fill="#DFDFDF" fill-rule="evenodd" d="M15 0H0V1V16H1V1H15V0Z" clip-rule="evenodd"/><path fill="#fff" fill-rule="evenodd" d="M2 1H1V15H2V2H14V1H2Z" clip-rule="evenodd"/><path fill="#000" fill-rule="evenodd" d="M16 17H15H0V16H15V0H16V17Z" clip-rule="evenodd"/><path fill="gray" fill-rule="evenodd" d="M15 1H14V15H1V16H14H15V1Z" clip-rule="evenodd"/><rect width="12" height="13" x="2" y="2" fill="silver"/><path fill="#000" fill-rule="evenodd" d="M8 6H7V7H6V8H5V9H4V10H11V9H10V8H9V7H8V6Z" clip-rule="evenodd"/></svg>